# xmcd
#
# Track frame offsets:
#	150
#	17352
#	36604
#	53345
#	67585
#	79136
#	91967
#	109063
#	125485
#	143482
#	156937
#	173909
#	191717
#	206254
#	224409
#	239670
#	255815
#	266633
#
# Disc length: 3764 seconds
# Revision: 1
# Processed by: cddbd v1.5.2PL0 Copyright (c) Steve Scherf et al.
# Submitted via: dBpowerAMP V12.0
#
DISCID=ef0eb212
DTITLE=Various Artist - Country Radio January 2006
DYEAR=2006
DGENRE=Country
TTITLE0=Bon Jovi and Jennifer Nettles - Who Says You Can't Go Home
TTITLE1=Keith Urban - Tonight I Wanna Cry
TTITLE2=Shedaisy - God Bless The Canadian Housewife
TTITLE3=Trent Tomlinson - Drunker Than Me
TTITLE4=George Canyon - One Good Friend
TTITLE5=Jamie O'Neal - I Love My Life
TTITLE6=Lee Ann Womack - Twenty Years and Two Husbands Ago
TTITLE7=Craig Morgan - I Got You
TTITLE8=Tracy Lawrence - If I Don't Make It Back
TTITLE9=Jeff Bates - No Shame
TTITLE10=Trisa Yearwood - Trying to Love You
TTITLE11=Leann Rimes - Something's Gotta Give
TTITLE12=Jo Dee Messina - Not Going Down
TTITLE13=Lonestar - I'll Die Tryin
TTITLE14=Kenny Rogers - I Can't Unlove You
TTITLE15=Deric Ruttan - Shine
TTITLE16=Jody Evans - One More Second Chance
TTITLE17=Ryan Shupe and The Rubberband - Banjo Boy
EXTD=
EXTT0=
EXTT1=
EXTT2=
EXTT3=
EXTT4=
EXTT5=
EXTT6=
EXTT7=
EXTT8=
EXTT9=
EXTT10=
EXTT11=
EXTT12=
EXTT13=
EXTT14=
EXTT15=
EXTT16=
EXTT17=
PLAYORDER=
